# xmcd
#
# Track frame offsets:
#	150
#	14079
#	26352
#	35015
#	54909
#	69253
#	87551
#	95630
#	104757
#	121332
#	142952
#	155292
#	170848
#
# Disc length: 2473 seconds
#
# Revision: 0
# Processed by: cddbd v1.5.2PL0 Copyright (c) Steve Scherf et al.
# Submitted via: audiograbber 1.83.01
#
DISCID=b009a70d
DTITLE=Evert Ljusberg - Song's for beauties and beasts
DYEAR=1900
DGENRE=
TTITLE0=Song from a dump
TTITLE1=Bored of the war
TTITLE2=On terrorism
TTITLE3=A strange tale
TTITLE4=Dying dictator
TTITLE5=I never knew it was the devil
TTITLE6=God for one day
TTITLE7=On birthcontrol
TTITLE8=Moral majority song
TTITLE9=Michelangelo
TTITLE10=Who controls the blame pattern
TTITLE11=Neither beer nor booze
TTITLE12=One day a year
EXTD=
EXTT0=
EXTT1=
EXTT2=
EXTT3=
EXTT4=
EXTT5=
EXTT6=
EXTT7=
EXTT8=
EXTT9=
EXTT10=
EXTT11=
EXTT12=
PLAYORDER=
